<?xml version="1.0" encoding="UTF-8"?>
<svg width="32px" height="21px" viewBox="0 0 32 21" version="1.1" xmlns="http://www.w3.org/2000/svg" xmlns:xlink="http://www.w3.org/1999/xlink">
    <!-- Generator: Sketch 54.1 (76490) - https://sketchapp.com -->
    <title>Group 7</title>
    <desc>Created with Sketch.</desc>
    <defs>
        <polygon id="path-1" points="0 0.2918 14.9994 0.2918 14.9994 21 0 21"></polygon>
        <polygon id="path-3" points="0.0072 0.2918 15.0072 0.2918 15.0072 21 0.0072 21"></polygon>
    </defs>
    <g id="-" stroke="none" stroke-width="1" fill="none" fill-rule="evenodd">
        <g id="02.1_Operations_OCINitrogen" transform="translate(-704.000000, -2142.000000)">
            <g id="Group-7" transform="translate(704.000000, 2141.000000)">
                <g id="Group-3" transform="translate(0.000000, 0.708600)">
                    <mask id="mask-2" fill="white">
                        <use xlink:href="#path-1"></use>
                    </mask>
                    <g id="Clip-2"></g>
                    <path d="M8.7214,6.1083 L11.9784,2.8523 C12.5644,2.2663 12.5644,1.3163 11.9784,0.7313 C11.3924,0.1453 10.4434,0.1453 9.8574,0.7313 L3.3074,7.2803 C1.3124,8.6283 -0.0006,10.9113 -0.0006,13.5003 C-0.0006,17.6423 3.3584,21.0003 7.4994,21.0003 C11.6424,21.0003 14.9994,17.6423 14.9994,13.5003 C14.9994,9.7753 12.2814,6.6923 8.7214,6.1083" id="Fill-1" fill="#4A90E2" mask="url(#mask-2)"></path>
                </g>
                <g id="Group-6" transform="translate(17.000000, 0.708600)">
                    <mask id="mask-4" fill="white">
                        <use xlink:href="#path-3"></use>
                    </mask>
                    <g id="Clip-5"></g>
                    <path d="M8.7292,6.1083 L11.9862,2.8523 C12.5722,2.2663 12.5722,1.3163 11.9862,0.7313 C11.4002,0.1453 10.4512,0.1453 9.8652,0.7313 L3.3152,7.2803 C1.3202,8.6293 0.0072,10.9113 0.0072,13.5003 C0.0072,17.6423 3.3662,21.0003 7.5072,21.0003 C11.6502,21.0003 15.0072,17.6423 15.0072,13.5003 C15.0072,9.7753 12.2892,6.6923 8.7292,6.1083" id="Fill-4" fill="#4A90E2" mask="url(#mask-4)"></path>
                </g>
            </g>
        </g>
    </g>
</svg>