<?xml version="1.0" encoding="UTF-8"?>
<svg width="22px" height="22px" viewBox="0 0 22 22" version="1.1" xmlns="http://www.w3.org/2000/svg" xmlns:xlink="http://www.w3.org/1999/xlink">
    <!-- Generator: Sketch 54.1 (76490) - https://sketchapp.com -->
    <title>search</title>
    <desc>Created with Sketch.</desc>
    <g id="Symbols" stroke="none" stroke-width="1" fill="none" fill-rule="evenodd">
        <g id="Mobile-searchbar" transform="translate(-314.000000, -29.000000)" fill="#F79727" fill-rule="nonzero">
            <path d="M327.427116,44.4271164 C326.037249,45.4174803 324.336652,46 322.5,46 C317.805579,46 314,42.1944206 314,37.5 C314,32.8055794 317.805579,29 322.5,29 C327.194421,29 331,32.8055794 331,37.5 C331,39.3366522 330.41748,41.0372495 329.427116,42.4271164 L335.011918,48.0119176 C335.562119,48.5621186 335.557531,49.4424687 335.011718,49.9882815 L334.988281,50.0117185 C334.443865,50.5561352 333.55762,50.5576204 333.011918,50.0119176 L327.427116,44.4271164 L327.427116,44.4271164 Z M322.5,44 C326.089851,44 329,41.0898511 329,37.5 C329,33.9101489 326.089851,31 322.5,31 C318.910149,31 316,33.9101489 316,37.5 C316,41.0898511 318.910149,44 322.5,44 L322.5,44 Z" id="search"></path>
        </g>
    </g>
</svg>