<?xml version="1.0" encoding="UTF-8"?><svg xmlns="http://www.w3.org/2000/svg" xmlns:xlink="http://www.w3.org/1999/xlink"><symbol viewBox="0 0 19 16" id="arrow" xmlns="http://www.w3.org/2000/svg"><g fill-rule="nonzero" stroke="#FFF" stroke-width="2" fill="none"><path d="M.59 8h16.682M12.071 1l5.36 6.43a1 1 0 0 1 0 1.281l-5.36 6.431"/></g></symbol><symbol viewBox="0 0 18 10" id="chevron" xmlns="http://www.w3.org/2000/svg"><path d="M16.406.778L8.628 8.556.849.778" fill-rule="nonzero" stroke="#FFF" stroke-width="2" fill="none"/></symbol><symbol viewBox="0 0 17 17" id="close" xmlns="http://www.w3.org/2000/svg"><g fill-rule="nonzero" stroke="#F79727" stroke-width="2" fill="none"><path d="M1.425 1.425l14.849 14.849M16.274 1.425L1.424 16.274"/></g></symbol><symbol viewBox="0 0 36 26" id="icon-download" xmlns="http://www.w3.org/2000/svg"><g stroke-width="2" fill="none"><path d="M25.316 9.425l-7.779 7.778L9.76 9.425"/><path d="M33.833 13.833v9.334h-31v-9.334"/></g></symbol><symbol viewBox="0 0 27 27" id="linkedin" xmlns="http://www.w3.org/2000/svg"><path d="M23.008 23.008h-4.004v-6.266c0-1.495-.025-3.417-2.08-3.417-2.085 0-2.402 1.629-2.402 3.31v6.373h-4V10.122h3.839v1.762h.054c.534-1.013 1.84-2.081 3.79-2.081 4.054 0 4.803 2.668 4.803 6.138v7.067zM6.006 8.362a2.321 2.321 0 1 1 0-4.645 2.323 2.323 0 0 1 0 4.645zM4.001 23.008h4.008V10.122H4.001v12.886zM25.003 0H1.993C.892 0 0 .872 0 1.947v23.106C0 26.128.893 27 1.992 27h23.01C26.105 27 27 26.128 27 25.053V1.947C27 .872 26.104 0 25.003 0z" fill="#FFF" fill-rule="evenodd"/></symbol><symbol viewBox="0 0 300 119.69" id="logo" xmlns="http://www.w3.org/2000/svg"><path d="M0 83.26q4.5-20.7 9-41.39C14.84 15.53 29.7 2.13 56.76.46a195.43 195.43 0 0 1 38.76 1.2c17.93 2.52 26.7 15 23.82 32.88a523.879 523.879 0 0 1-10 47.86c-5.06 19.82-18.23 31.54-38.56 35a140.71 140.71 0 0 1-44.26.41C13.1 115.89 3.42 109.19 0 95.26zm53.39 7.63c2.83-.15 5.65-.26 8.47-.44 7.23-.46 12.63-3.87 14.38-11 3.26-13.19 6.26-26.5 8.64-39.89 1.29-7.22-1.88-10.69-9.22-11.23a137.69 137.69 0 0 0-17.94 0c-6.72.38-11.6 3.93-13.78 10.45a124.86 124.86 0 0 0-3.37 12.48c-1.88 8.59-3.81 17.19-5.29 25.86-1.54 9.14 1.57 12.77 10.63 13.4 2.49.19 4.99.25 7.48.37zM300 3.26c-2.37 10.51-4.87 21-7.1 31.53-5.65 26.7-11.28 53.4-16.65 80.16-.78 3.86-2.38 4.81-6 4.74-8.95-.19-17.9-.07-27.6-.07 2-9.71 3.81-18.62 5.69-27.51 5.93-28 12-56 17.73-84 1-4.85 2.49-7 7.94-6.66 8.61.49 17.29-.06 25.94-.17zM199.35 73.78h32.33c-2.16 25.73-14.32 43.07-39.94 45.24a225.76 225.76 0 0 1-44.26-1c-15-1.7-22.22-10.73-21.17-25.84.9-13 3.94-25.92 6.3-38.83a180.66 180.66 0 0 1 4.33-17.93c5.9-20.35 19.79-31.88 40.6-33.69a283.49 283.49 0 0 1 42.83-.14c14.71 1 20.81 8.72 20.71 23.42C241 44.26 241 44.26 222 44.26h-16.27c-.24-.81-.45-1.13-.4-1.41 1.87-10.94-.17-13.52-11.12-14.07-19-.94-23.51 2.57-27.36 21.06-1.87 9-3.89 17.89-5.55 26.88-1.92 10.41 1.27 14.21 11.84 14.69 1.17 0 2.33.07 3.5.08 12.78 0 19.19-.63 22-16.42a4.92 4.92 0 0 1 .71-1.29z"/></symbol><symbol viewBox="0 0 21 21" id="map-pin-plus" xmlns="http://www.w3.org/2000/svg"><g fill-rule="nonzero" stroke="#FFF" stroke-width="2" fill="none"><path d="M0 10.5h21M10.5 0v21"/></g></symbol><symbol viewBox="0 0 8 16" id="our-history-arrow" xmlns="http://www.w3.org/2000/svg"><path d="M1.071 1l5.36 6.43a1 1 0 0 1 0 1.281l-5.36 6.431" fill-rule="nonzero" stroke="#F79727" stroke-width="2" fill="none"/></symbol><symbol viewBox="0 0 22 22" id="search" xmlns="http://www.w3.org/2000/svg"><path d="M13.427 15.427a8.5 8.5 0 1 1 2-2l5.585 5.585c.55.55.546 1.43 0 1.976l-.024.024a1.399 1.399 0 0 1-1.976 0l-5.585-5.585zM8.5 15a6.5 6.5 0 1 0 0-13 6.5 6.5 0 0 0 0 13z"/></symbol></svg>