<?xml version="1.0" encoding="UTF-8"?>
<svg width="27px" height="27px" viewBox="0 0 27 27" version="1.1" xmlns="http://www.w3.org/2000/svg" xmlns:xlink="http://www.w3.org/1999/xlink">
    <!-- Generator: Sketch 54.1 (76490) - https://sketchapp.com -->
    <title>LinkedIn</title>
    <desc>Created with Sketch.</desc>
    <g id="Symbols" stroke="none" stroke-width="1" fill="none" fill-rule="evenodd">
        <g id="Footer" transform="translate(-1192.000000, -16.000000)" fill="#FFFFFF">
            <path d="M1215.00839,39.0076391 L1211.00403,39.0076391 L1211.00403,32.7419651 C1211.00403,31.2471735 1210.97853,29.3248701 1208.92347,29.3248701 C1206.83916,29.3248701 1206.5219,30.9539154 1206.5219,32.6347121 L1206.5219,39.0076391 L1202.52204,39.0076391 L1202.52204,26.1222812 L1206.36065,26.1222812 L1206.36065,27.8840801 L1206.4154,27.8840801 C1206.94942,26.870802 1208.25595,25.8027723 1210.20451,25.8027723 C1214.25912,25.8027723 1215.00839,28.4705964 1215.00839,31.9409428 L1215.00839,39.0076391 Z M1198.00617,24.3619823 C1196.71988,24.3619823 1195.6826,23.3217034 1195.6826,22.0391678 C1195.6826,20.7573821 1196.71988,19.7171033 1198.00617,19.7171033 C1199.2872,19.7171033 1200.32748,20.7573821 1200.32748,22.0391678 C1200.32748,23.3217034 1199.2872,24.3619823 1198.00617,24.3619823 Z M1196.00061,39.0076391 L1200.00947,39.0076391 L1200.00947,26.1222812 L1196.00061,26.1222812 L1196.00061,39.0076391 Z M1217.00269,16 L1193.99206,16 C1192.89327,16 1192,16.8715242 1192,17.9470541 L1192,41.0529459 C1192,42.1277258 1192.89327,43.00075 1193.99206,43.00075 L1217.00269,43.00075 C1218.10373,43.00075 1219,42.1277258 1219,41.0529459 L1219,17.9470541 C1219,16.8715242 1218.10373,16 1217.00269,16 Z" id="LinkedIn"></path>
        </g>
    </g>
</svg>