<svg xmlns="http://www.w3.org/2000/svg" xmlns:xlink="http://www.w3.org/1999/xlink" x="0px" y="0px"
	 viewBox="0 0 595 595">
    <path d="M555.6,269.6c-5-9.1-12.5-16.7-21.6-21.9L118.5,7.7C109.7,2.7,99.8,0,89.7,0C58,0,32.2,25.8,32.2,57.6v479.9
        c0,31.7,25.8,57.6,57.6,57.6c10,0,20-2.7,28.7-7.7l415.6-239.9c9.1-5.2,16.5-12.8,21.6-21.9c4.7-8.5,7.2-18.2,7.2-27.9
        C562.9,287.7,560.4,278.1,555.6,269.6z M519,297.5c0,5-2.6,9.4-6.9,11.9L96.6,549.3c-2.1,1.2-4.4,1.9-6.8,1.9
        c-7.6,0-13.7-6.2-13.7-13.7V57.6c0-7.6,6.2-13.7,13.7-13.7c2.4,0,4.7,0.6,6.8,1.9l415.6,239.9C516.5,288.1,519,292.6,519,297.5z"/>
</svg>
