<?xml version="1.0" encoding="UTF-8"?>
<svg width="22px" height="22px" viewBox="0 0 22 22" version="1.1" xmlns="http://www.w3.org/2000/svg" xmlns:xlink="http://www.w3.org/1999/xlink">
    <!-- Generator: Sketch 54.1 (76490) - https://sketchapp.com -->
    <title>search</title>
    <desc>Created with Sketch.</desc>
    <g id="Symbols" stroke="none" stroke-width="1" fill="none" fill-rule="evenodd">
        <g id="Header" transform="translate(-1198.000000, -29.000000)" fill="#283A6A" fill-rule="nonzero">
            <path d="M1211.42712,44.4271164 C1210.03725,45.4174803 1208.33665,46 1206.5,46 C1201.80558,46 1198,42.1944206 1198,37.5 C1198,32.8055794 1201.80558,29 1206.5,29 C1211.19442,29 1215,32.8055794 1215,37.5 C1215,39.3366522 1214.41748,41.0372495 1213.42712,42.4271164 L1219.01192,48.0119176 C1219.56212,48.5621186 1219.55753,49.4424687 1219.01172,49.9882815 L1218.98828,50.0117185 C1218.44386,50.5561352 1217.55762,50.5576204 1217.01192,50.0119176 L1211.42712,44.4271164 L1211.42712,44.4271164 Z M1206.5,44 C1210.08985,44 1213,41.0898511 1213,37.5 C1213,33.9101489 1210.08985,31 1206.5,31 C1202.91015,31 1200,33.9101489 1200,37.5 C1200,41.0898511 1202.91015,44 1206.5,44 L1206.5,44 Z" id="search"></path>
        </g>
    </g>
</svg>